<?xml version="1.0" encoding="UTF-8"?>
<svg id="Layer_1" data-name="Layer 1" xmlns="http://www.w3.org/2000/svg" viewBox="0 0 48 48">
  <path d="M24,10h0c8.284,0,15,6.716,15,15v17H9v-17c0-8.284,6.716-15,15-15Z" fill="#ff3b65" stroke-width="0"/>
  <path d="M34.33,14.142c1.06,2.057,1.67,4.384,1.67,6.858v8c0,4.418-3.582,8-8,8H9v5h30v-17c0-4.276-1.799-8.125-4.67-10.858Z" fill="#d82b50" stroke-width="0"/>
  <path d="M16.339,19.572c-.227,0-.454-.077-.642-.234-.423-.355-.479-.986-.123-1.409,1.024-1.222,2.331-2.225,3.776-2.899,1.447-.674,3.055-1.031,4.649-1.031.553,0,1,.448,1,1s-.447,1-1,1c-1.305,0-2.62.292-3.804.843-1.183.552-2.252,1.372-3.091,2.372-.197.236-.48.357-.767.357Z" fill="#ff8098" stroke-width="0"/>
  <path d="M14.153,24.264c-.056,0-.112-.004-.169-.014-.544-.093-.91-.609-.818-1.153.028-.162.06-.322.096-.482.033-.151.071-.308.114-.464.144-.534.691-.847,1.227-.704.533.145.848.694.703,1.227-.033.125-.063.251-.092.377-.029.131-.055.255-.075.381-.083.488-.507.833-.985.833Z" fill="#ff8098" stroke-width="0"/>
  <rect x="4" y="40" width="40" height="7" rx="2" ry="2" fill="#cfe0f3" stroke-width="0"/>
  <path d="M6,40c-1.105,0-2,.895-2,2v2h35c1.105,0,2-.895,2-2v-2H6Z" fill="#eff3f9" stroke-width="0"/>
  <rect y="24" width="6" height="2" rx="1" ry="1" fill="#ff8098" stroke-width="0"/>
  <rect x="42" y="24" width="6" height="2" rx="1" ry="1" fill="#ff8098" stroke-width="0"/>
  <rect x="23" y="1" width="2" height="6" rx="1" ry="1" fill="#ff8098" stroke-width="0"/>
  <rect x="35.849" y="9.151" width="6" height="2" rx="1" ry="1" transform="translate(4.201 30.444) rotate(-45)" fill="#ff8098" stroke-width="0"/>
  <rect x="8.151" y="7.151" width="2" height="6" rx="1" ry="1" transform="translate(-4.497 9.444) rotate(-45)" fill="#ff8098" stroke-width="0"/>
</svg>